<svg width="320" height="160" viewBox="0 0 320 160" fill="none" xmlns="http://www.w3.org/2000/svg">
<rect width="320" height="160" rx="10" fill="url(#paint0_linear_662_494)"/>
<path d="M269.965 68.4513L251.348 57.7162C250.563 57.2636 249.676 57.0172 248.77 57.0002C247.861 56.9924 246.968 57.2405 246.193 57.7162L227.578 68.4513C226.798 68.9001 226.149 69.5458 225.697 70.3237C225.245 71.1016 225.004 71.9846 225 72.8845V94.4419C225.014 95.3398 225.258 96.2192 225.71 96.9955C226.161 97.7718 226.804 98.4191 227.578 98.8751L228.866 99.5911L234.808 103.028V93.0824L248.77 85.0637L262.732 93.0824V102.963L268.674 99.5267L269.962 98.7394C270.742 98.2906 271.391 97.6449 271.843 96.867C272.295 96.0891 272.536 95.2061 272.54 94.3062V72.82C272.521 71.9321 272.274 71.0641 271.823 70.299C271.372 69.534 270.732 68.8977 269.965 68.4513ZM262.59 81.763L251.282 75.1803C250.498 74.7278 249.611 74.4814 248.706 74.4643C247.794 74.4553 246.899 74.7035 246.122 75.1803L234.738 81.763V75.5404L246.41 68.81C247.098 68.4226 247.875 68.2192 248.665 68.2192C249.455 68.2192 250.232 68.4226 250.921 68.81L262.592 75.5404L262.59 81.763Z" fill="white"/>
<path d="M48 21.3415C48 17.8392 50.8392 15 54.3415 15H171.488C174.99 15 177.829 17.8392 177.829 21.3415V138.659C177.829 142.161 174.99 145 171.488 145H54.3415C50.8392 145 48 142.161 48 138.659V21.3415Z" fill="white"/>
<path fill-rule="evenodd" clip-rule="evenodd" d="M171.488 15.975H54.3415C51.3776 15.975 48.975 18.3776 48.975 21.3415V138.659C48.975 141.622 51.3776 144.025 54.3415 144.025H171.488C174.452 144.025 176.854 141.622 176.854 138.659V21.3415C176.854 18.3776 174.452 15.975 171.488 15.975ZM54.3415 15C50.8392 15 48 17.8392 48 21.3415V138.659C48 142.161 50.8392 145 54.3415 145H171.488C174.99 145 177.829 142.161 177.829 138.659V21.3415C177.829 17.8392 174.99 15 171.488 15H54.3415Z" fill="#E0E6EF"/>
<path fill-rule="evenodd" clip-rule="evenodd" d="M113.465 135.139C112.02 135.139 110.848 136.307 110.848 137.749C110.848 139.19 112.02 140.359 113.465 140.359C114.488 140.359 115.375 139.773 115.805 138.919L116.345 139.189C115.816 140.239 114.725 140.961 113.465 140.961C111.686 140.961 110.244 139.523 110.244 137.749C110.244 135.975 111.686 134.537 113.465 134.537C114.725 134.537 115.816 135.258 116.345 136.309L115.805 136.579C115.375 135.724 114.488 135.139 113.465 135.139Z" fill="#BCC6C8"/>
<path d="M116.586 136.946V134.637L114.371 136.946H116.586Z" fill="#BCC6C8"/>
<rect x="56.3413" y="39.7317" width="43.439" height="65" fill="#241716"/>
<rect x="105.488" y="39.7317" width="65" height="65" fill="#858688"/>
<rect x="56.3413" y="115.195" width="114.146" height="14.2683" fill="#98A3C4"/>
<path d="M67.1219 80.6341C67.6293 80.1268 71.2439 77.0406 72.9878 75.561C72.9878 74.6097 73.2097 72.4536 74.0975 71.439C75.2073 70.1707 76.3171 69.061 77.4268 67.9512C78.3146 67.0634 78.9593 67.0528 79.1707 67.1585C81.126 65.4675 85.1951 61.9268 85.8293 61.2927C86.6219 60.5 87.5732 60.6585 88.0488 61.1341C88.4293 61.5146 88.5244 62.1382 88.5244 62.4024C88.5772 62.3496 88.8732 62.0854 89.6341 61.4512C90.5854 60.6585 91.378 61.2927 91.5366 61.4512C91.8536 61.7683 92.1707 62.7195 91.5366 63.3536C91.0293 63.861 87.4146 67.3699 85.6707 69.061C86.3049 69.4837 87.7 70.4244 88.2073 70.8049C88.8415 71.2805 88.8415 71.9146 88.5244 73.6585C88.2073 75.4024 87.4146 76.0366 85.9878 77.3049C84.8463 78.3195 84.0325 78.0447 83.7683 77.7805C83.4512 77.9919 82.4366 78.6366 80.9146 79.5244C79.3927 80.4122 78.2723 80.4227 77.9024 80.3171C76.2642 81.9024 72.8293 85.2317 72.1951 85.8658C71.4024 86.6585 70.7683 86.6585 70.2927 86.3414C69.8171 86.0244 67.7561 84.5975 67.1219 84.1219C66.6146 83.7414 66.4878 83.3293 66.4878 83.1707V82.2195C66.4878 81.7439 66.4878 81.2683 67.1219 80.6341Z" fill="#DDB58C"/>
<path d="M145.281 86.9758C146.866 86.0246 146.708 85.7075 147.817 84.5978C148.927 83.488 151.305 80.0002 150.512 79.3661C149.72 78.7319 145.281 80.1588 141.634 81.4271C137.988 82.6954 138.622 82.6954 137.83 83.3295C137.037 83.9636 135.293 84.2807 133.39 85.7075C131.488 87.1344 126.89 89.0368 125.781 89.988C124.671 90.9393 124.195 91.5734 124.512 92.049C124.83 92.5246 125.464 92.049 126.098 92.049C126.732 92.049 126.89 93.3173 125.939 93.9515C124.988 94.5856 124.671 94.9027 124.988 95.0612C125.305 95.2197 126.098 95.0612 127.208 94.4271C128.317 93.7929 128.793 93.6344 129.427 94.11C130.061 94.5856 128.951 95.3783 129.903 95.6954C130.854 96.0124 134.976 94.9027 136.72 92.6832C138.464 90.4636 140.049 90.4636 141.634 89.5124C143.22 88.5612 143.695 87.9271 145.281 86.9758Z" fill="#41444E"/>
<path fill-rule="evenodd" clip-rule="evenodd" d="M124.771 74.3214C124.75 76.0081 124.735 77.1867 124.036 79.0488C123.14 81.439 122.385 82.5623 122.035 83.0819C122.014 83.1137 121.994 83.1433 121.975 83.1707C121.658 83.6463 121.5 84.439 121.975 84.7561C122.356 85.0097 123.085 84.5447 123.402 84.2805C123.719 85.0203 124.48 86.7219 124.988 87.6097C125.061 87.7378 125.126 87.8552 125.185 87.9631C125.641 88.7905 125.786 89.0549 127.049 89.1951C128.19 89.3219 129.321 88.9309 129.744 88.7195C129.902 89.1951 130.314 90.3683 130.695 91.2561C131.171 92.3658 131.963 93 134.024 93.3171C136.085 93.6341 136.402 93.1585 136.402 92.6829C136.402 92.2073 136.244 91.2561 134.817 90.939C133.39 90.6219 132.439 89.3536 132.597 87.2927C132.756 85.2317 133.073 84.439 134.341 82.378C135.61 80.3171 136.085 79.3658 136.402 76.3536C136.432 76.0723 136.459 75.8117 136.484 75.5704C136.725 73.2285 136.779 72.7073 137.354 72.7073C137.988 72.7073 138.305 73.3414 138.463 75.4024C138.506 75.9521 138.503 76.513 138.5 77.0731C138.492 78.6134 138.484 80.148 139.414 81.4268C140.429 82.8219 142.585 82.9593 143.536 82.8536C143.589 83.3821 143.917 84.4707 144.805 84.5975C145.914 84.7561 147.975 84.9146 147.975 84.1219C147.975 83.3292 147.658 83.1707 146.549 82.6951C145.439 82.2195 145.122 81.9024 145.122 80.6341C145.122 79.3658 145.914 73.8171 146.39 72.2317C146.531 71.7623 146.727 71.2929 146.934 70.7989C147.426 69.6242 147.975 68.31 147.975 66.5244C147.975 63.9878 147.975 62.878 148.451 60.1829C148.927 57.4878 149.402 57.0122 150.036 57.0122C150.671 57.0122 152.097 56.8536 152.414 55.2683C152.732 53.6829 152.414 53.3658 151.78 52.8902C151.407 52.6099 151.363 52.2193 151.326 51.8809C151.3 51.6453 151.276 51.435 151.146 51.3049C150.893 51.0512 150.829 50.7764 150.829 50.6707C150.988 49.6666 151.21 47.5951 150.829 47.3414C150.449 47.0878 149.508 49.2439 149.085 50.3536C148.874 50.3008 148.261 50.1634 147.5 50.0366C147.346 50.0109 147.209 49.9936 147.084 49.9778C146.438 49.8961 146.129 49.8571 145.597 48.9268C145.43 48.6337 145.274 48.3075 145.119 47.986C144.69 47.0903 144.278 46.2317 143.695 46.2317C142.902 46.2317 143.061 48.2927 143.378 49.878C143.452 50.2471 143.543 50.5818 143.631 50.9061C143.922 51.975 144.182 52.9313 143.695 54.6341C143.061 56.8536 141.475 59.2317 140.683 60.3414C139.89 61.4512 138.939 62.4024 137.512 62.561C137.189 62.5969 136.735 62.6002 136.191 62.6043C134.337 62.6179 131.439 62.6393 129.11 63.9878C126.097 65.7317 124.97 68.1097 124.829 72.2317C124.787 73.0327 124.778 73.7104 124.771 74.3214ZM143.536 80.7927L142.902 73.0244C142.215 72.8658 140.841 72.961 140.841 74.6097C140.841 76.6707 140.841 78.7317 141.634 79.8414C142.329 80.8151 143.484 80.8984 143.536 80.7927ZM128.951 86.9756C129.374 86.1829 130.219 84.0902 130.219 82.061C130.219 79.5244 130.219 77.1463 129.585 76.9878C128.951 76.8293 128 78.0976 127.207 81.7439C126.414 85.3902 126.732 86.0244 127.524 86.5C128.158 86.8805 128.74 86.9756 128.951 86.9756Z" fill="#DAA4BB"/>
<circle cx="163.512" cy="97.7561" r="5.70732" fill="#444444"/>
<ellipse cx="163.512" cy="97.7561" rx="5.07317" ry="5.07317" fill="#FDFDFD"/>
<path fill-rule="evenodd" clip-rule="evenodd" d="M160.341 97.7563C160.341 97.5811 160.483 97.4392 160.658 97.4392H165.732C165.907 97.4392 166.049 97.5811 166.049 97.7563C166.049 97.9314 165.907 98.0733 165.732 98.0733H160.658C160.483 98.0733 160.341 97.9314 160.341 97.7563Z" fill="#444444"/>
<path fill-rule="evenodd" clip-rule="evenodd" d="M164.873 96.2638C164.997 96.1399 165.198 96.1399 165.322 96.2638L166.59 97.5321C166.714 97.6559 166.714 97.8566 166.59 97.9805L165.322 99.2488C165.198 99.3726 164.997 99.3726 164.873 99.2488C164.749 99.1249 164.749 98.9242 164.873 98.8004L165.917 97.7563L164.873 96.7122C164.749 96.5884 164.749 96.3876 164.873 96.2638Z" fill="#444444"/>
<circle cx="112.464" cy="97.7561" r="5.70732" transform="rotate(-180 112.464 97.7561)" fill="#444444"/>
<ellipse cx="112.463" cy="97.7559" rx="5.07317" ry="5.07317" transform="rotate(-180 112.463 97.7559)" fill="#FDFDFD"/>
<path fill-rule="evenodd" clip-rule="evenodd" d="M115.634 97.7563C115.634 97.9314 115.492 98.0733 115.317 98.0733H110.244C110.069 98.0733 109.927 97.9314 109.927 97.7563C109.927 97.5811 110.069 97.4392 110.244 97.4392H115.317C115.492 97.4392 115.634 97.5811 115.634 97.7563Z" fill="#444444"/>
<path fill-rule="evenodd" clip-rule="evenodd" d="M111.102 99.2488C110.978 99.3726 110.778 99.3726 110.654 99.2488L109.386 97.9805C109.262 97.8566 109.262 97.6559 109.386 97.5321L110.654 96.2638C110.778 96.1399 110.978 96.1399 111.102 96.2638C111.226 96.3876 111.226 96.5883 111.102 96.7122L110.058 97.7563L111.102 98.8003C111.226 98.9242 111.226 99.1249 111.102 99.2488Z" fill="#444444"/>
<ellipse cx="129.903" cy="108.219" rx="1.26829" ry="1.26829" fill="#BCC6C8"/>
<circle cx="129.902" cy="108.219" r="0.95122" fill="white"/>
<ellipse cx="133.073" cy="108.219" rx="1.26829" ry="1.26829" fill="#BCC6C8"/>
<circle cx="133.073" cy="108.219" r="0.95122" fill="#50BA5C"/>
<ellipse cx="136.244" cy="108.219" rx="1.26829" ry="1.26829" fill="#BCC6C8"/>
<circle cx="136.244" cy="108.219" r="0.95122" fill="white"/>
<ellipse cx="139.415" cy="108.219" rx="1.26829" ry="1.26829" fill="#BCC6C8"/>
<circle cx="139.415" cy="108.219" r="0.95122" fill="white"/>
<ellipse cx="142.585" cy="108.219" rx="1.26829" ry="1.26829" fill="#BCC6C8"/>
<circle cx="142.585" cy="108.219" r="0.95122" fill="white"/>
<ellipse cx="145.756" cy="108.219" rx="1.26829" ry="1.26829" fill="#BCC6C8"/>
<circle cx="145.756" cy="108.219" r="0.95122" fill="white"/>
<path d="M96.6099 122.488C96.6099 121.262 97.6036 120.268 98.8294 120.268H128.317C129.543 120.268 130.537 121.262 130.537 122.488C130.537 123.714 129.543 124.707 128.317 124.707H98.8294C97.6036 124.707 96.6099 123.714 96.6099 122.488Z" fill="white"/>
<path d="M56.3413 30.8534C56.3413 29.6276 57.335 28.6339 58.5608 28.6339H113.414C114.64 28.6339 115.634 29.6276 115.634 30.8534C115.634 32.0792 114.64 33.073 113.414 33.073H58.5608C57.335 33.073 56.3413 32.0792 56.3413 30.8534Z" fill="#98A3C3"/>
<path d="M56.3413 23.2437C56.3413 22.0179 57.335 21.0242 58.5608 21.0242H168.268C169.494 21.0242 170.488 22.0179 170.488 23.2437C170.488 24.4695 169.494 25.4632 168.268 25.4632H58.5608C57.335 25.4632 56.3413 24.4695 56.3413 23.2437Z" fill="#98A3C3"/>
<defs>
<linearGradient id="paint0_linear_662_494" x1="160" y1="0" x2="160" y2="160" gradientUnits="userSpaceOnUse">
<stop stop-color="#D8CFED"/>
<stop offset="1" stop-color="#D3EDD7"/>
</linearGradient>
</defs>
</svg>
